<?xml version="1.0" encoding="utf-8"?>
<!-- Generator: Adobe Illustrator 22.0.0, SVG Export Plug-In . SVG Version: 6.00 Build 0)  -->
<svg version="1.1" id="Capa_1" xmlns="http://www.w3.org/2000/svg" xmlns:xlink="http://www.w3.org/1999/xlink" x="0px" y="0px"
	 viewBox="0 0 271.9 70.4" style="enable-background:new 0 0 271.9 70.4;" xml:space="preserve">
<style type="text/css">
	.st0{fill:#707173;}
	.st1{fill:#F64F10;}
	.st2{fill:#141F62;}
</style>
<path class="st0" d="M61.9,4.9h-0.8V0.1h1.7c1,0,1.8,0.8,1.8,1.8c0,1-0.8,1.8-1.8,1.8h-0.9V4.9z M62.7,0.9h-0.9v2h0.9
	c0.6,0,1-0.5,1-1C63.8,1.3,63.3,0.9,62.7,0.9"/>
<path class="st0" d="M69.9,0.1c1.3,0,2.4,1.1,2.4,2.4s-1.1,2.4-2.4,2.4c-1.3,0-2.4-1.1-2.4-2.4S68.5,0.1,69.9,0.1 M69.9,0.9
	c-0.9,0-1.6,0.7-1.6,1.6s0.7,1.6,1.6,1.6c0.9,0,1.6-0.7,1.6-1.6S70.8,0.9,69.9,0.9"/>
<path class="st0" d="M75.6,2.3c-0.3-0.3-0.4-0.6-0.4-1c0-0.7,0.8-1.4,1.5-1.4c0.7,0,1.5,0.6,1.5,1.1l-0.8,0.3c0-0.3-0.3-0.5-0.7-0.5
	c-0.4,0-0.7,0.2-0.7,0.5c0,0.3,0.3,0.5,0.7,0.6c0.5,0.1,0.7,0.1,0.9,0.2c0.4,0.2,0.8,0.5,0.8,1.3S77.6,5,76.8,5
	c-0.8,0-1.7-0.6-1.7-1.2L76,3.5c0,0.4,0.5,0.7,0.9,0.7c0.4,0,0.9-0.3,0.9-0.7c0-0.5-0.5-0.6-0.9-0.7C76.3,2.6,75.9,2.6,75.6,2.3"/>
<path class="st0" d="M85.3,4.9h-0.9L84,4.1h-1.8l-0.3,0.8h-0.9l2.2-4.9L85.3,4.9z M82.6,3.3h1.1l-0.6-1.4L82.6,3.3z"/>
<path class="st0" d="M89.5,0.1c1.3,0,2.4,1.1,2.4,2.4s-1.1,2.4-2.4,2.4h-1.4V0.1H89.5z M89.5,0.9h-0.6v3.3h0.6
	c0.9,0,1.6-0.7,1.6-1.6C91.1,1.6,90.4,0.9,89.5,0.9"/>
<path class="st0" d="M98.7,4.9h-0.9l-0.3-0.8h-1.8l-0.3,0.8h-0.9l2.2-4.9L98.7,4.9z M96,3.3h1.1l-0.6-1.4L96,3.3z"/>
<path class="st0" d="M101.6,2.3c-0.3-0.3-0.4-0.6-0.4-1c0-0.7,0.8-1.4,1.5-1.4c0.7,0,1.5,0.6,1.5,1.1l-0.8,0.3
	c0-0.3-0.3-0.5-0.7-0.5c-0.4,0-0.7,0.2-0.7,0.5c0,0.3,0.3,0.5,0.7,0.6c0.5,0.1,0.7,0.1,0.9,0.2c0.4,0.2,0.8,0.5,0.8,1.3
	S103.6,5,102.8,5c-0.8,0-1.7-0.6-1.7-1.2l0.8-0.3c0,0.4,0.5,0.7,0.9,0.7c0.4,0,0.9-0.3,0.9-0.7c0-0.5-0.5-0.6-0.9-0.7
	C102.3,2.6,101.9,2.6,101.6,2.3"/>
<path class="st0" d="M107.7,3.6c0.5,0,0.9,0.4,0.9,0.9s-0.4,0.9-0.9,0.9c0,0,0.1-0.1,0.2-0.2c0.1-0.1,0.1-0.2,0-0.2
	c0-0.1-0.1-0.1-0.2-0.1c-0.4,0-0.7-0.3-0.7-0.7C107.1,3.9,107.4,3.6,107.7,3.6"/>
<path class="st0" d="M116,4.9h-0.8V0.1h1.7c1,0,1.8,0.8,1.8,1.8c0,1-0.8,1.8-1.8,1.8H116V4.9z M116.9,0.9H116v2h0.9c0.6,0,1-0.5,1-1
	C117.9,1.3,117.4,0.9,116.9,0.9"/>
<path class="st0" d="M124,0.1c1.3,0,2.4,1.1,2.4,2.4s-1.1,2.4-2.4,2.4c-1.3,0-2.4-1.1-2.4-2.4S122.6,0.1,124,0.1 M124,0.9
	c-0.9,0-1.6,0.7-1.6,1.6s0.7,1.6,1.6,1.6c0.9,0,1.6-0.7,1.6-1.6S124.9,0.9,124,0.9"/>
<path class="st0" d="M129.8,2.3c-0.3-0.3-0.4-0.6-0.4-1c0-0.7,0.8-1.4,1.5-1.4c0.7,0,1.5,0.6,1.5,1.1l-0.8,0.3
	c0-0.3-0.3-0.5-0.7-0.5c-0.4,0-0.7,0.2-0.7,0.5c0,0.3,0.3,0.5,0.7,0.6c0.5,0.1,0.7,0.1,0.9,0.2c0.4,0.2,0.8,0.5,0.8,1.3
	S131.8,5,130.9,5c-0.8,0-1.7-0.6-1.7-1.2l0.8-0.3c0,0.4,0.5,0.7,0.9,0.7c0.4,0,0.9-0.3,0.9-0.7c0-0.5-0.5-0.6-0.9-0.7
	C130.4,2.6,130,2.6,129.8,2.3"/>
<path class="st0" d="M139.4,4.9h-0.9l-0.3-0.8h-1.8L136,4.9h-0.9l2.2-4.9L139.4,4.9z M136.7,3.3h1.1l-0.6-1.4L136.7,3.3z"/>
<path class="st0" d="M143.6,0.1c1.3,0,2.4,1.1,2.4,2.4s-1.1,2.4-2.4,2.4h-1.4V0.1H143.6z M143.6,0.9h-0.6v3.3h0.6
	c0.9,0,1.6-0.7,1.6-1.6C145.2,1.6,144.5,0.9,143.6,0.9"/>
<path class="st0" d="M152.8,4.9h-0.9l-0.3-0.8h-1.8l-0.3,0.8h-0.9l2.2-4.9L152.8,4.9z M150.1,3.3h1.1l-0.6-1.4L150.1,3.3z"/>
<path class="st0" d="M155.7,2.3c-0.3-0.3-0.4-0.6-0.4-1c0-0.7,0.8-1.4,1.5-1.4c0.7,0,1.5,0.6,1.5,1.1l-0.8,0.3
	c0-0.3-0.3-0.5-0.7-0.5c-0.4,0-0.7,0.2-0.7,0.5c0,0.3,0.3,0.5,0.7,0.6c0.5,0.1,0.7,0.1,0.9,0.2c0.4,0.2,0.8,0.5,0.8,1.3
	S157.7,5,156.9,5c-0.8,0-1.7-0.6-1.7-1.2l0.8-0.3c0,0.4,0.5,0.7,0.9,0.7c0.4,0,0.9-0.3,0.9-0.7c0-0.5-0.5-0.6-0.9-0.7
	C156.4,2.6,156,2.6,155.7,2.3"/>
<path class="st0" d="M167.8,4.7c-0.2,0.1-0.5,0.2-0.8,0.2h0c-0.8,0-1.6-0.7-1.6-1.5c0-0.5,0.2-0.9,0.5-1.1c-0.3-0.3-0.3-0.6-0.3-0.9
	c0-0.7,0.7-1.4,1.5-1.4c0.7,0,1.5,0.6,1.5,1.1l-0.8,0.3c0-0.3-0.4-0.5-0.7-0.5c-0.3,0-0.7,0.2-0.7,0.5c0,0.3,0.4,0.5,0.7,0.5h2.7
	l-0.3,0.8h-0.8v2.7l-0.8-0.1V4.7z M167,2.8c-0.3,0-0.8,0.3-0.8,0.7c0,0.4,0.4,0.7,0.8,0.7h0c0.3,0,0.7-0.2,0.8-0.5V2.8H167z"/>
<polygon class="st0" points="177.6,4.9 175.4,0.1 176.3,0.1 177.6,3 178.8,0.1 179.7,0.1 "/>
<polygon class="st0" points="185,0.9 183.4,0.9 183.4,2.1 184.7,2.1 184.7,2.9 183.4,2.9 183.4,4.1 185.3,4.1 185,4.9 182.6,4.9 
	182.6,0.1 185.3,0.1 "/>
<path class="st0" d="M192.2,4.2c-0.4,0.4-1.1,0.7-1.7,0.7c-1.3,0-2.4-1.1-2.4-2.4c0-1.3,1.1-2.4,2.4-2.4c0.7,0,1.3,0.3,1.7,0.7
	l-0.6,0.6c-0.3-0.3-0.7-0.5-1.1-0.5c-0.9,0-1.6,0.7-1.6,1.6s0.7,1.6,1.6,1.6c0.4,0,0.9-0.2,1.1-0.5L192.2,4.2z"/>
<rect x="195.4" y="0.1" class="st0" width="0.8" height="4.9"/>
<polygon class="st0" points="200.3,2.2 200.3,4.9 199.5,4.9 199.5,0.1 202.2,2.8 202.2,0.1 203,0.1 203,4.9 "/>
<path class="st0" d="M208.4,0.1c1.3,0,2.4,1.1,2.4,2.4s-1.1,2.4-2.4,2.4c-1.3,0-2.4-1.1-2.4-2.4S207.1,0.1,208.4,0.1 M208.4,0.9
	c-0.9,0-1.6,0.7-1.6,1.6s0.7,1.6,1.6,1.6c0.9,0,1.6-0.7,1.6-1.6S209.3,0.9,208.4,0.9"/>
<path class="st1" d="M108.1,66.3c1.1,0,2,0.9,2,2s-0.9,2-2,2H107v-4.1H108.1z M108.1,67h-0.5v2.7h0.5c0.7,0,1.3-0.6,1.3-1.4
	C109.5,67.6,108.9,67,108.1,67"/>
<polygon class="st1" points="116,67 114.7,67 114.7,68 115.8,68 115.8,68.7 114.7,68.7 114.7,69.7 116.3,69.7 116,70.4 114,70.4 
	114,66.3 116.3,66.3 "/>
<path class="st1" d="M120.3,68.2c-0.3-0.3-0.3-0.5-0.3-0.8c0-0.6,0.7-1.1,1.3-1.1c0.6,0,1.3,0.5,1.3,0.9l-0.7,0.2
	c0-0.2-0.3-0.5-0.6-0.5c-0.3,0-0.6,0.2-0.6,0.5c0,0.3,0.3,0.4,0.6,0.5c0.4,0.1,0.6,0.1,0.8,0.2c0.3,0.1,0.6,0.4,0.6,1.1
	c0,0.7-0.7,1.2-1.4,1.2c-0.7,0-1.4-0.5-1.4-1l0.7-0.2c0,0.3,0.4,0.6,0.7,0.6c0.3,0,0.7-0.3,0.7-0.6c0-0.4-0.4-0.5-0.7-0.6
	C120.9,68.4,120.5,68.4,120.3,68.2"/>
<path class="st1" d="M127.7,66.3c1.1,0,2,0.9,2,2s-0.9,2-2,2h-1.2v-4.1H127.7z M127.7,67h-0.5v2.7h0.5c0.7,0,1.3-0.6,1.3-1.4
	C129.1,67.6,128.5,67,127.7,67"/>
<polygon class="st1" points="135.7,67 134.3,67 134.3,68 135.4,68 135.4,68.7 134.3,68.7 134.3,69.7 135.9,69.7 135.7,70.4 
	133.6,70.4 133.6,66.3 135.9,66.3 "/>
<polygon class="st1" points="144.5,66.3 145.4,66.3 145.4,70.4 144.7,70.4 144.7,67 144.3,67 "/>
<path class="st1" d="M150.6,68.9c-0.6-0.1-1.1-0.7-1.1-1.3c0-0.8,0.6-1.4,1.4-1.4c0.8,0,1.4,0.6,1.4,1.4c0,0.3-0.1,0.7-0.3,0.9
	l-1.5,1.9h-0.9L150.6,68.9z M150.9,68.3c0.4,0,0.7-0.3,0.7-0.7c0-0.4-0.3-0.7-0.7-0.7c-0.4,0-0.7,0.3-0.7,0.7
	C150.2,68,150.5,68.3,150.9,68.3"/>
<path class="st1" d="M155.9,70.4c0,0,1.7-2.6,1.7-2.9s-0.3-0.6-0.6-0.6c-0.3,0-0.6,0.3-0.6,0.6l-0.7-0.2c0-0.5,0.6-1,1.2-1
	s1.2,0.6,1.2,1.2v0c0,0.4-0.1,0.7-0.3,1l-0.8,1.2h1.1v0.7H155.9z"/>
<path class="st1" d="M163.8,67.7c0.6,0.1,1.1,0.7,1.1,1.3c0,0.8-0.6,1.4-1.4,1.4c-0.8,0-1.4-0.6-1.4-1.4c0-0.3,0.1-0.7,0.3-0.9v0
	l1.5-1.9h0.9L163.8,67.7z M163.6,68.4c-0.4,0-0.7,0.3-0.7,0.7c0,0.4,0.3,0.7,0.7,0.7c0.4,0,0.7-0.3,0.7-0.7
	C164.3,68.7,164,68.4,163.6,68.4"/>
<path class="st2" d="M5.9,53.4H0V17.8h12.3c7.3,0,13.3,6,13.3,13.3c0,7.4-6,13.3-13.3,13.3H5.9V53.4z M12.3,23.8H5.9v14.8h6.4
	c4.1,0,7.4-3.3,7.4-7.4C19.7,27.1,16.4,23.8,12.3,23.8"/>
<path class="st2" d="M56.7,17.8c9.8,0,17.8,8,17.8,17.8s-8,17.8-17.8,17.8c-9.8,0-17.8-8-17.8-17.8S46.9,17.8,56.7,17.8 M56.7,23.8
	c-6.6,0-11.8,5.3-11.8,11.8s5.3,11.8,11.8,11.8c6.5,0,11.8-5.3,11.8-11.8S63.3,23.8,56.7,23.8"/>
<path class="st2" d="M91.4,34.4c-2.3-2.4-2.6-4.5-2.6-7.1c0-5.4,5.8-9.9,11.3-9.9c5.4,0,11.3,4.1,11.3,7.9l-5.9,2
	c0-2.2-2.4-3.9-5.3-3.9c-3,0-5.3,1.8-5.3,3.9c0,2.2,2.3,3.8,5.3,4.3c3.5,0.6,5.1,0.9,6.8,1.7c2.7,1.1,5.5,3.6,5.5,9.6
	c0,6-6.2,10.9-12.2,10.9c-6,0-12.2-4.3-12.2-8.9l5.9-2c0,2.7,3.7,4.9,6.3,4.9c2.9,0,6.3-2.2,6.3-4.9c0-3.5-3.5-4.6-6.3-5.3
	C96.3,36.6,93.3,36.3,91.4,34.4"/>
<path class="st2" d="M154.2,53.4h-6.9l-2.4-5.9h-13l-2.4,5.9h-6.9l15.8-35.5L154.2,53.4z M134.4,41.5h8.1l-4-9.9L134.4,41.5z"/>
<path class="st2" d="M177.6,17.8c9.7,0.1,17.5,8.1,17.5,17.8c0,9.7-7.8,17.7-17.5,17.8h-10.1V17.8H177.6z M177.6,23.8h-4.2v23.7h4.2
	c6.4-0.1,11.6-5.4,11.6-11.8C189.2,29.1,184.1,23.9,177.6,23.8"/>
<path class="st2" d="M237.1,53.4h-6.9l-2.4-5.9h-13l-2.4,5.9h-6.9l15.8-35.5L237.1,53.4z M217.3,41.5h8.1l-4-9.9L217.3,41.5z"/>
<path class="st2" d="M251.1,34.4c-2.3-2.4-2.6-4.5-2.6-7.1c0-5.4,5.8-9.9,11.3-9.9c5.4,0,11.3,4.1,11.3,7.9l-5.9,2
	c0-2.2-2.4-3.9-5.3-3.9c-3,0-5.3,1.8-5.3,3.9c0,2.2,2.3,3.8,5.3,4.3c3.5,0.6,5.1,0.9,6.8,1.7c2.7,1.1,5.5,3.6,5.5,9.6
	c0,6-6.2,10.9-12.2,10.9c-6,0-12.2-4.3-12.2-8.9l5.9-2c0,2.7,3.7,4.9,6.3,4.9c2.9,0,6.3-2.2,6.3-4.9c0-3.5-3.5-4.6-6.3-5.3
	C255.9,36.6,252.9,36.3,251.1,34.4"/>
</svg>
